<?xml version="1.0" standalone="no"?>
<!DOCTYPE svg PUBLIC "-//W3C//DTD SVG 20010904//EN"
 "http://www.w3.org/TR/2001/REC-SVG-20010904/DTD/svg10.dtd">
<svg version="1.0" xmlns="http://www.w3.org/2000/svg"
 width="767.000000pt" height="212.000000pt" viewBox="0 0 767.000000 212.000000"
 preserveAspectRatio="xMidYMid meet">

<g transform="translate(0.000000,212.000000) scale(0.100000,-0.100000)"
fill="#ffff" stroke="none">
<path d="M1098 2113 c-10 -2 -22 -21 -28 -41 -6 -20 -49 -278 -95 -572 -47
-294 -88 -547 -91 -561 -4 -22 -13 -28 -42 -34 -170 -32 -526 -160 -651 -234
-156 -92 -221 -202 -181 -306 l10 -27 58 52 c192 172 594 364 1048 500 l140
42 63 386 c34 213 65 402 68 420 l5 32 102 0 c206 0 356 -71 421 -200 60 -119
50 -299 -25 -439 l-29 -53 32 6 c18 4 109 20 202 37 94 16 180 32 192 34 30 7
54 114 60 270 6 139 -9 218 -59 324 -44 93 -166 213 -268 263 -100 49 -223 83
-348 97 -98 10 -548 14 -584 4z"/>
<path d="M4349 2050 c-101 -53 -153 -174 -115 -263 25 -58 69 -90 131 -95 76
-6 134 17 185 75 83 95 79 220 -10 281 -43 29 -138 30 -191 2z"/>
<path d="M2880 1944 c-69 -8 -130 -16 -136 -18 -5 -2 -57 -73 -114 -157 -98
-145 -102 -152 -74 -146 16 3 89 11 161 18 l133 13 100 143 c55 78 100 147
100 153 0 12 -7 12 -170 -6z"/>
<path d="M4965 1828 c-77 -10 -145 -24 -152 -31 -7 -7 -22 -76 -34 -154 l-23
-143 -73 0 c-67 0 -73 -2 -78 -22 -9 -40 -33 -203 -30 -206 1 -1 69 -7 151
-13 82 -5 244 -18 359 -29 116 -10 213 -16 216 -12 6 6 49 245 49 271 0 7 -38
11 -115 11 -111 0 -115 1 -115 21 0 18 12 98 45 297 6 31 5 32 -27 31 -18 -1
-96 -10 -173 -21z"/>
<path d="M3454 1546 c-219 -36 -358 -115 -465 -263 l-31 -45 43 6 c142 19 643
46 855 46 l131 0 13 101 c7 57 9 104 4 109 -5 5 -58 18 -119 30 -139 27 -324
34 -431 16z"/>
<path d="M2663 1526 c-84 -12 -156 -26 -160 -30 -4 -4 -19 -77 -33 -162 -22
-133 -23 -154 -10 -154 8 1 89 11 180 23 l165 22 23 130 c25 143 25 189 2 191
-8 1 -83 -8 -167 -20z"/>
<path d="M4450 1540 c-30 -5 -98 -14 -151 -20 -53 -7 -102 -15 -109 -20 -17
-11 -51 -211 -36 -215 6 -2 86 -6 177 -8 l165 -5 21 131 c12 72 20 134 17 139
-6 9 -6 9 -84 -2z"/>
<path d="M6560 1534 c-175 -37 -356 -178 -435 -337 -21 -42 -36 -79 -34 -81 4
-4 309 -56 328 -56 5 0 18 22 29 49 22 54 91 135 132 156 26 14 64 19 114 17
40 -3 101 -66 116 -122 7 -25 10 -75 8 -112 l-4 -67 56 -12 c30 -6 102 -22
158 -35 57 -13 110 -24 117 -24 20 0 38 123 33 226 -3 74 -9 101 -35 156 -78
167 -239 260 -447 257 -39 0 -100 -7 -136 -15z"/>
<path d="M5410 1493 c0 -5 -9 -62 -20 -128 -29 -180 -47 -159 143 -179 89 -10
238 -29 331 -42 93 -13 170 -23 171 -21 4 5 85 337 85 347 0 17 -101 11 -183
-9 -92 -24 -126 -41 -179 -89 l-41 -37 7 43 c3 23 9 60 12 82 l6 40 -166 0
c-91 0 -166 -3 -166 -7z"/>
<path d="M3810 1229 c-192 -8 -177 -6 -185 -26 -4 -10 -22 -107 -40 -216 -21
-128 -39 -204 -49 -216 -9 -9 -37 -28 -62 -40 -61 -31 -141 -26 -180 10 -48
44 -68 97 -68 179 -1 88 20 158 69 230 27 40 30 50 17 50 -55 0 -363 -40 -380
-49 -45 -24 -84 -236 -64 -354 22 -137 90 -235 199 -289 60 -29 78 -33 169
-36 107 -4 171 8 248 47 l38 20 -6 -51 c-31 -230 -261 -299 -549 -166 -48 23
-90 39 -93 35 -3 -3 -14 -63 -24 -133 -15 -99 -16 -130 -7 -136 20 -13 158
-56 222 -69 79 -17 286 -17 355 0 212 51 366 204 420 417 21 82 133 770 128
788 -2 8 -47 9 -158 5z"/>
<path d="M4131 1193 c-5 -21 -34 -188 -64 -370 l-53 -333 177 0 177 0 12 68
c89 533 106 657 91 664 -9 4 -87 7 -173 7 l-157 1 -10 -37z"/>
<path d="M4710 1188 c-14 -35 -71 -403 -77 -499 -7 -105 6 -153 51 -180 28
-18 48 -20 232 -18 l202 3 -58 55 c-52 50 -59 62 -65 107 -7 56 -7 59 36 338
16 104 28 190 27 191 -4 4 -269 25 -306 25 -24 0 -35 -6 -42 -22z"/>
<path d="M5362 1138 c-8 -11 -112 -605 -112 -644 0 -2 79 -4 175 -4 173 0 175
0 180 22 2 13 21 127 40 253 42 268 48 293 82 321 l25 21 -126 17 c-212 28
-250 30 -264 14z"/>
<path d="M2636 1115 c-181 -31 -183 -31 -201 -58 -8 -13 -33 -140 -58 -295
l-43 -272 178 0 c98 0 178 3 178 8 0 4 23 146 50 315 54 336 53 327 43 326 -5
0 -71 -11 -147 -24z"/>
<path d="M6076 1037 c-24 -17 -34 -172 -16 -248 30 -128 116 -241 223 -293
111 -55 265 -68 404 -35 136 32 296 142 374 258 40 61 32 61 204 -12 161 -70
266 -130 336 -195 60 -55 69 -54 69 9 0 72 -152 168 -395 248 -113 38 -452
131 -474 131 -6 0 -20 -19 -32 -42 -83 -166 -262 -199 -333 -63 -16 30 -21 59
-21 117 l0 78 -50 10 c-40 8 -266 50 -270 50 -1 0 -9 -6 -19 -13z"/>
<path d="M2077 1005 c-382 -88 -727 -193 -1020 -311 -233 -94 -228 -91 -240
-168 l-6 -38 332 5 c346 6 405 12 547 58 162 53 351 181 457 308 49 59 113
158 113 175 0 11 -31 6 -183 -29z"/>
</g>
</svg>
