<?xml version="1.0" standalone="no"?>
<!DOCTYPE svg PUBLIC "-//W3C//DTD SVG 20010904//EN"
 "http://www.w3.org/TR/2001/REC-SVG-20010904/DTD/svg10.dtd">
<svg version="1.0" xmlns="http://www.w3.org/2000/svg"
 width="3840.000000pt" height="2160.000000pt" viewBox="0 0 3840.000000 2160.000000"
 preserveAspectRatio="xMidYMid meet">

<g transform="translate(0.000000,2160.000000) scale(0.100000,-0.100000)"
fill="#ffff" stroke="none">
<path d="M7049 17300 c-18 -10 -127 -21 -214 -21 -38 0 -86 -4 -105 -9 -19 -5
-66 -12 -105 -15 -38 -2 -106 -10 -150 -16 -44 -5 -110 -14 -146 -18 -36 -4
-71 -11 -77 -15 -6 -4 -26 -9 -44 -11 -63 -7 -246 -45 -363 -74 -22 -6 -58
-14 -80 -20 -22 -5 -56 -14 -75 -20 -19 -5 -46 -13 -60 -16 -14 -4 -34 -10
-45 -15 -11 -5 -31 -11 -45 -14 -86 -17 -117 -27 -215 -67 -11 -4 -49 -17 -85
-29 -36 -12 -72 -24 -80 -27 -8 -3 -19 -7 -25 -8 -20 -5 -167 -63 -235 -93
-25 -11 -56 -23 -70 -27 -14 -4 -44 -18 -68 -31 -23 -13 -47 -24 -53 -24 -6 0
-36 -12 -67 -26 -97 -44 -397 -197 -415 -212 -12 -10 -33 -22 -161 -91 -32
-17 -78 -45 -102 -61 -23 -17 -51 -34 -61 -38 -15 -6 -120 -75 -278 -182 -72
-49 -174 -124 -240 -177 -5 -5 -30 -24 -55 -43 -313 -241 -774 -690 -1027
-1002 -112 -137 -283 -365 -283 -377 0 -4 -9 -16 -20 -26 -11 -10 -20 -22 -20
-26 0 -4 -34 -58 -75 -119 -41 -61 -75 -114 -75 -117 0 -3 -13 -22 -30 -43
-16 -21 -30 -40 -30 -44 0 -3 -20 -38 -44 -78 -58 -96 -152 -273 -228 -428
-186 -383 -304 -693 -442 -1170 -18 -63 -73 -290 -80 -335 -3 -17 -16 -87 -30
-155 -13 -69 -29 -159 -36 -200 -6 -41 -15 -100 -20 -130 -5 -30 -14 -104 -20
-165 -6 -60 -16 -148 -23 -195 -8 -57 -12 -239 -11 -550 0 -500 0 -503 14
-570 5 -25 12 -79 14 -120 5 -69 12 -128 36 -300 16 -115 70 -391 99 -505 6
-22 14 -58 20 -80 17 -72 49 -189 71 -260 12 -38 26 -86 31 -105 15 -50 88
-271 98 -295 5 -11 28 -69 51 -130 23 -60 50 -128 60 -150 10 -22 30 -69 45
-105 49 -117 204 -436 254 -521 11 -19 34 -61 52 -94 17 -33 40 -72 50 -87 11
-14 19 -29 19 -33 0 -4 14 -27 30 -52 17 -24 30 -48 30 -52 0 -4 9 -16 20 -26
11 -10 20 -22 20 -27 0 -5 21 -41 47 -80 27 -39 53 -79 59 -89 6 -10 18 -27
27 -37 10 -10 17 -22 17 -25 0 -4 6 -15 14 -24 8 -10 36 -47 62 -83 118 -162
206 -275 278 -360 31 -36 80 -94 110 -130 148 -178 583 -592 821 -781 192
-152 227 -178 440 -324 281 -193 788 -457 1190 -620 17 -7 55 -21 85 -31 30
-10 59 -22 65 -26 5 -4 17 -8 27 -8 10 0 26 -4 36 -9 20 -12 194 -69 302 -101
41 -12 86 -26 100 -30 14 -5 50 -14 80 -21 30 -6 66 -15 80 -20 14 -4 45 -11
70 -14 25 -4 61 -11 80 -17 19 -6 46 -12 60 -14 14 -1 45 -7 70 -13 243 -59
588 -105 865 -116 72 -3 166 -9 210 -14 106 -11 542 -6 677 9 58 6 121 9 140
7 18 -2 40 -1 48 3 8 5 51 11 95 14 44 3 109 10 144 15 35 6 67 9 70 9 3 -1
22 2 41 6 19 4 53 8 75 11 41 4 109 15 205 35 30 6 78 15 105 20 53 9 105 21
170 40 22 6 56 15 75 20 19 5 52 13 73 19 20 6 52 15 70 20 17 5 61 17 97 26
36 9 73 20 82 26 10 5 26 9 36 9 10 0 22 4 27 8 8 7 103 40 140 48 23 6 116
41 122 47 3 4 15 7 25 7 10 0 26 4 36 9 18 9 63 28 97 41 44 17 152 64 221 96
28 13 54 24 58 24 8 0 335 161 376 185 115 68 183 105 189 105 4 0 16 9 26 20
10 11 22 20 26 20 4 0 40 22 81 48 40 27 89 57 108 68 45 25 90 56 264 182 17
12 47 33 66 47 106 76 162 119 252 195 442 375 715 657 1043 1077 89 114 405
574 405 590 0 2 11 20 23 41 121 192 330 612 432 867 26 66 53 134 61 150 7
17 20 53 29 80 9 28 20 59 25 70 17 36 108 332 152 490 6 22 14 54 19 70 49
177 118 544 149 790 6 50 15 119 20 155 5 36 12 108 16 160 3 52 7 118 9 145
2 28 5 167 6 310 3 273 -3 457 -21 615 -5 52 -9 104 -9 115 0 11 -6 72 -15
135 -8 63 -18 138 -21 165 -4 28 -10 70 -15 95 -5 25 -13 72 -19 105 -39 220
-67 351 -110 523 -20 77 -33 127 -41 152 -4 14 -13 45 -20 70 -7 25 -16 54
-20 65 -4 11 -22 65 -39 120 -18 55 -36 109 -41 120 -5 11 -23 61 -41 110 -34
97 -69 185 -100 252 -10 24 -19 45 -19 48 0 2 -11 28 -24 57 -13 29 -34 76
-46 103 -34 75 -122 252 -160 320 -18 33 -46 85 -63 115 -129 237 -299 498
-471 724 -50 65 -100 130 -110 145 -11 14 -37 46 -58 71 -22 25 -45 52 -52 60
-201 242 -613 649 -856 847 -270 219 -608 454 -865 600 -262 149 -399 221
-560 293 -27 12 -68 30 -90 40 -22 10 -80 35 -130 55 -49 20 -114 48 -143 61
-29 13 -58 24 -66 24 -7 0 -16 3 -19 7 -12 12 -312 115 -407 139 -30 8 -68 19
-85 24 -26 8 -72 21 -215 62 -34 9 -73 18 -162 37 -24 5 -68 14 -98 21 -30 6
-66 13 -80 15 -14 2 -51 8 -82 14 -236 44 -500 76 -721 87 -70 3 -129 9 -132
13 -3 6 -335 6 -400 1 -5 -1 -22 1 -36 3 -15 2 -33 1 -40 -3z m668 -406 c18
-2 76 -9 130 -14 54 -5 125 -14 158 -19 33 -6 87 -15 120 -20 80 -13 175 -30
200 -35 59 -12 161 -35 205 -46 19 -5 58 -14 85 -21 28 -6 75 -19 105 -29 30
-9 75 -23 100 -30 25 -8 50 -16 55 -20 6 -3 26 -11 45 -17 19 -6 82 -28 140
-48 101 -36 136 -50 245 -100 28 -13 73 -33 100 -45 540 -241 1134 -658 1600
-1125 343 -343 585 -658 819 -1065 41 -71 192 -380 216 -440 12 -30 28 -71 37
-90 21 -48 28 -66 53 -135 12 -33 26 -68 31 -77 5 -10 9 -26 9 -36 0 -10 4
-22 8 -27 5 -6 14 -30 22 -55 7 -25 19 -63 25 -85 34 -106 100 -372 125 -500
6 -33 14 -69 16 -80 9 -38 41 -247 55 -360 34 -278 50 -674 42 -988 l-6 -218
-29 -24 c-16 -14 -36 -25 -44 -25 -9 0 -39 22 -67 48 -122 113 -319 259 -485
361 -132 81 -404 213 -510 247 -26 8 -56 19 -67 23 -38 16 -188 60 -275 81
-129 32 -350 58 -545 65 -205 7 -229 10 -280 41 -59 35 -69 45 -210 214 -358
427 -826 815 -1280 1061 -122 66 -302 154 -385 189 -41 18 -91 39 -110 47 -50
22 -70 29 -110 43 -19 7 -44 16 -55 20 -35 15 -138 48 -215 70 -123 35 -143
41 -185 51 -71 18 -109 27 -150 39 -22 6 -62 16 -90 21 -27 5 -72 14 -100 19
-109 21 -193 32 -340 45 -44 3 -93 9 -110 12 -61 10 -435 18 -600 12 -250 -9
-355 -19 -522 -50 -260 -46 -303 -55 -513 -110 -119 -30 -130 -33 -270 -80
-116 -39 -277 -99 -360 -136 -19 -8 -51 -22 -70 -30 -19 -9 -62 -28 -95 -43
-33 -15 -78 -36 -100 -46 -46 -21 -217 -116 -325 -182 -688 -415 -1264 -1025
-1650 -1747 -29 -55 -63 -116 -75 -135 -12 -19 -24 -43 -28 -52 -12 -33 -24
-19 -31 35 -32 242 -42 646 -22 922 9 127 19 241 22 255 3 13 10 58 15 100 16
119 33 209 75 395 37 168 126 472 164 563 22 51 30 70 50 126 11 32 30 79 42
105 11 25 29 66 40 91 39 89 163 336 200 399 21 34 38 65 38 68 0 2 14 24 30
48 17 24 30 46 30 49 0 8 91 159 108 179 8 9 20 26 26 36 38 66 239 339 324
440 284 338 516 557 905 855 78 59 400 276 411 276 2 0 35 19 72 42 76 46 372
197 474 242 36 16 83 37 105 47 98 44 376 144 525 189 41 12 86 26 100 30 14
4 45 13 70 20 25 7 56 16 70 20 14 5 41 11 60 15 19 4 51 11 70 15 64 14 194
40 250 50 142 24 182 30 275 40 205 22 273 27 375 29 57 1 106 4 109 6 5 6
486 -4 528 -11z m-1057 -3464 c260 -21 447 -46 600 -79 30 -7 66 -14 80 -17
14 -3 33 -7 42 -10 9 -3 25 -6 35 -8 16 -4 122 -32 213 -58 19 -5 45 -12 58
-15 12 -3 25 -9 28 -14 3 -5 15 -9 28 -9 12 0 26 -4 31 -8 6 -4 28 -14 50 -21
22 -7 49 -16 60 -20 11 -5 54 -21 95 -36 262 -97 665 -320 930 -515 204 -150
590 -505 676 -621 63 -86 47 -103 -155 -169 -69 -22 -135 -44 -146 -49 -11 -5
-40 -17 -65 -26 -25 -9 -60 -23 -77 -31 -18 -8 -50 -21 -70 -30 -521 -223
-1015 -666 -1325 -1189 -96 -162 -207 -400 -248 -535 -7 -25 -17 -49 -22 -55
-4 -5 -8 -19 -8 -31 0 -13 -4 -25 -9 -28 -5 -3 -11 -18 -14 -33 -3 -16 -10
-46 -16 -68 -26 -102 -33 -133 -41 -180 -17 -103 -29 -182 -35 -240 -4 -32 -8
-62 -10 -65 -1 -3 -6 -81 -9 -175 -7 -165 5 -426 24 -550 17 -112 40 -238 55
-300 1 -5 5 -23 9 -40 12 -53 48 -170 57 -187 5 -10 9 -25 9 -33 0 -8 4 -23 9
-33 12 -23 39 -91 62 -152 51 -140 248 -484 360 -630 143 -188 316 -369 484
-509 152 -127 399 -286 580 -375 88 -43 169 -82 180 -86 71 -26 225 -99 225
-108 0 -13 -218 -205 -366 -323 -297 -235 -592 -413 -964 -582 -39 -18 -180
-70 -250 -93 -25 -8 -54 -19 -65 -23 -37 -16 -156 -52 -240 -72 -22 -6 -58
-14 -80 -20 -22 -6 -58 -14 -80 -19 -22 -5 -60 -14 -85 -20 -79 -20 -233 -43
-395 -60 -55 -6 -118 -12 -140 -15 -50 -6 -588 -6 -635 0 -19 2 -82 9 -140 15
-58 6 -130 15 -160 20 -30 5 -82 13 -115 19 -50 7 -96 17 -170 35 -5 2 -28 6
-50 11 -22 4 -65 14 -95 22 -30 8 -71 18 -90 23 -98 22 -433 138 -580 201 -93
40 -330 159 -430 217 -220 127 -434 278 -650 458 -111 93 -381 361 -452 450
-31 38 -78 96 -105 129 -111 137 -255 348 -345 505 -84 147 -210 412 -262 550
-26 69 -51 133 -57 142 -5 10 -9 27 -9 37 0 11 -5 23 -10 26 -6 3 -10 17 -10
30 0 13 -4 27 -10 30 -5 3 -10 17 -10 30 0 13 -4 26 -9 29 -5 3 -11 18 -14 33
-3 16 -10 44 -15 63 -6 19 -18 64 -27 100 -9 36 -20 81 -25 100 -12 43 -58
282 -64 330 -2 19 -7 53 -10 75 -42 271 -53 826 -21 1083 22 181 38 286 65
405 5 26 14 66 19 90 15 70 79 299 109 392 29 87 101 272 138 353 13 29 24 55
24 57 0 26 170 342 268 500 330 529 767 973 1295 1319 240 158 534 310 777
403 36 14 74 29 85 34 39 17 241 82 315 101 41 11 91 24 110 29 32 8 194 43
251 54 13 3 35 7 49 10 14 2 45 7 70 10 25 3 52 8 60 10 8 2 42 7 75 10 33 3
67 7 75 10 8 2 71 7 140 10 68 3 126 8 128 10 8 8 344 4 452 -5z m3959 -1900
c322 -51 478 -94 706 -196 475 -214 840 -522 1115 -944 72 -112 181 -313 214
-400 10 -25 24 -58 31 -75 12 -26 58 -164 84 -250 15 -49 60 -256 66 -305 16
-128 35 -402 30 -450 -3 -30 -8 -95 -10 -145 -7 -115 -26 -247 -54 -375 -5
-25 -13 -58 -16 -75 -4 -16 -10 -39 -14 -50 -5 -11 -18 -51 -30 -90 -12 -38
-26 -79 -30 -90 -5 -11 -21 -54 -36 -95 -69 -188 -225 -457 -371 -640 -242
-305 -550 -552 -886 -715 -134 -64 -303 -135 -323 -135 -5 0 -46 -11 -89 -25
-44 -14 -89 -27 -100 -29 -154 -28 -198 -36 -240 -41 -27 -3 -53 -8 -56 -10
-4 -3 -92 -7 -196 -11 -252 -9 -467 9 -684 56 -41 9 -60 14 -152 39 -37 10
-64 19 -93 31 -11 5 -42 16 -70 25 -315 102 -666 334 -950 626 -339 349 -581
807 -674 1274 -18 90 -30 159 -38 215 -12 86 -8 586 5 670 24 153 32 196 41
235 6 22 14 60 20 85 10 47 64 218 81 258 6 12 14 32 19 45 146 349 368 671
630 911 301 277 575 436 987 575 50 17 101 31 112 31 11 0 23 4 26 9 3 4 25
11 48 15 24 3 68 10 98 16 30 5 88 14 129 20 40 5 76 12 79 15 10 9 524 5 591
-5z"/>
<path d="M16658 17000 c-20 -11 -48 -34 -62 -52 -23 -31 -51 -127 -60 -208 -5
-39 -40 -230 -56 -300 -6 -25 -14 -65 -20 -90 -9 -46 -25 -115 -42 -185 -14
-59 -25 -111 -42 -195 -8 -41 -24 -118 -36 -170 -12 -52 -26 -117 -31 -145 -6
-27 -15 -68 -20 -90 -5 -22 -14 -62 -19 -90 -6 -27 -15 -68 -20 -90 -5 -22
-14 -62 -20 -90 -5 -27 -14 -70 -20 -95 -6 -25 -14 -67 -19 -95 -6 -27 -22
-106 -37 -175 -15 -69 -30 -143 -35 -165 -4 -22 -13 -65 -19 -95 -14 -65 -26
-123 -40 -185 -20 -92 -28 -132 -40 -195 -6 -36 -15 -81 -20 -101 -8 -29 -49
-221 -91 -426 -5 -24 -14 -64 -19 -90 -6 -27 -15 -68 -20 -93 -5 -25 -14 -65
-19 -90 -5 -25 -17 -79 -25 -120 -14 -72 -66 -315 -86 -410 -6 -25 -15 -67
-20 -95 -5 -27 -15 -70 -21 -95 -5 -25 -14 -67 -19 -95 -4 -27 -22 -113 -40
-190 -17 -77 -32 -158 -32 -180 -1 -47 26 -95 53 -95 10 0 21 -5 25 -11 5 -9
43 -10 138 -4 165 10 415 10 571 0 116 -7 121 -7 164 17 26 15 53 41 66 64 25
45 34 80 65 244 6 30 15 78 21 105 5 28 12 68 16 90 3 22 9 44 14 50 5 5 9 21
9 36 0 14 14 93 31 175 17 82 35 169 40 194 5 25 13 65 19 90 6 25 15 70 21
100 6 30 15 75 20 100 5 25 12 63 15 85 3 22 9 49 14 60 5 11 11 40 14 65 3
25 7 52 9 60 2 8 7 38 11 65 10 69 53 144 96 169 33 19 55 20 450 21 480 1
593 7 855 46 76 11 244 46 285 59 14 4 45 13 70 20 71 20 132 40 170 56 73 31
266 129 283 145 9 9 30 22 45 30 47 24 154 114 239 201 230 235 415 633 474
1018 19 125 3 399 -29 510 -6 19 -14 46 -17 60 -4 14 -10 34 -15 45 -4 11 -18
46 -30 77 -74 192 -239 391 -429 516 -72 48 -262 142 -285 142 -8 0 -18 5 -21
10 -3 6 -17 10 -30 10 -13 0 -26 4 -29 9 -4 5 -30 12 -59 16 -28 4 -60 12 -70
17 -34 18 -108 20 -942 28 -462 5 -934 11 -1050 14 -194 5 -213 4 -247 -14z
m1457 -690 c123 -15 223 -36 280 -59 66 -27 195 -94 195 -101 0 -5 9 -11 19
-15 27 -8 122 -101 154 -150 50 -77 79 -172 84 -280 6 -119 -6 -214 -45 -365
-15 -60 -79 -187 -128 -256 -49 -69 -174 -184 -199 -184 -8 0 -15 -4 -15 -10
0 -8 -82 -50 -160 -82 -14 -6 -33 -14 -42 -19 -10 -5 -27 -9 -37 -9 -11 0 -22
-4 -25 -9 -3 -5 -18 -11 -33 -14 -16 -3 -48 -11 -73 -17 -174 -44 -660 -74
-792 -50 -95 18 -120 44 -117 119 1 54 11 117 29 191 5 19 14 60 20 90 7 30
16 71 20 90 5 19 14 62 20 95 6 33 15 76 20 95 9 37 17 76 51 250 12 58 25
123 30 145 5 22 14 61 19 88 6 26 14 68 20 95 5 26 14 67 20 92 6 25 13 61 15
80 23 149 42 177 122 179 27 0 95 5 153 9 160 12 307 13 395 2z"/>
<path d="M26339 15908 c-11 -5 -48 -10 -82 -12 -34 -3 -79 -10 -100 -16 -22
-6 -41 -9 -44 -7 -2 3 -25 -2 -49 -10 -25 -8 -48 -13 -51 -10 -3 3 -23 -1 -45
-10 -21 -8 -41 -13 -44 -10 -3 3 -21 -1 -40 -9 -19 -8 -36 -14 -39 -14 -10 1
-60 -12 -80 -20 -11 -4 -65 -22 -120 -39 -55 -18 -110 -36 -122 -41 -13 -6
-33 -14 -45 -19 -46 -19 -354 -172 -383 -191 -16 -11 -37 -23 -45 -27 -24 -11
-243 -156 -261 -173 -9 -8 -65 -55 -125 -105 -90 -75 -170 -154 -334 -334 -48
-53 -183 -246 -227 -326 -194 -352 -294 -662 -322 -995 -5 -58 -12 -126 -16
-151 -4 -25 -2 -88 4 -140 6 -52 13 -112 15 -134 10 -90 63 -269 100 -335 47
-87 71 -127 90 -155 41 -60 162 -178 226 -219 87 -57 220 -121 275 -132 6 -1
37 -9 70 -17 153 -40 431 -50 580 -21 44 9 98 19 120 23 51 9 150 39 192 57
17 8 36 14 42 14 7 0 46 19 89 41 103 56 110 60 161 94 24 17 51 35 60 40 34
20 159 134 246 223 49 51 94 92 98 92 22 0 -44 -337 -105 -540 -84 -275 -172
-457 -294 -607 -26 -32 -52 -62 -58 -68 -90 -82 -169 -143 -236 -185 -46 -27
-87 -50 -92 -50 -5 0 -28 -9 -50 -20 -23 -11 -48 -20 -55 -20 -7 0 -21 -4 -31
-9 -34 -17 -67 -30 -97 -36 -200 -42 -280 -50 -485 -50 -179 0 -293 9 -425 35
-166 31 -159 29 -315 103 -131 62 -145 67 -191 67 -34 0 -46 -6 -82 -43 -46
-48 -67 -101 -92 -232 -9 -44 -29 -135 -46 -202 -30 -120 -30 -122 -12 -160
19 -41 65 -69 135 -85 21 -4 57 -13 81 -19 23 -5 60 -14 82 -19 22 -5 60 -14
85 -20 47 -12 120 -24 205 -34 28 -4 66 -9 85 -13 19 -3 38 -6 41 -5 3 0 66
-5 139 -13 73 -8 136 -13 139 -13 3 1 94 -2 201 -6 154 -6 231 -5 365 8 385
38 412 43 675 127 394 126 719 371 955 719 66 97 162 282 204 395 12 33 27 68
32 77 5 10 9 25 9 33 0 8 4 23 9 33 11 20 40 111 51 162 5 19 14 53 20 75 6
22 15 56 20 75 23 94 46 184 91 350 5 19 14 55 20 80 5 25 15 63 20 85 6 22
14 58 19 80 5 22 14 59 19 83 25 100 30 120 45 182 14 60 42 187 67 305 6 28
15 68 21 90 5 22 13 59 19 83 5 23 14 62 19 87 6 25 15 65 20 90 6 25 15 65
20 90 19 88 28 131 39 190 11 59 18 95 61 285 11 52 25 118 30 145 6 28 14 68
19 90 5 22 12 56 16 75 3 19 10 51 15 70 5 19 13 60 20 90 6 30 24 118 42 195
31 141 36 165 58 265 7 30 16 73 22 95 5 22 13 58 17 80 5 22 16 73 25 113 21
97 20 134 -5 166 -34 43 -46 48 -234 87 -55 11 -131 25 -170 30 -38 5 -104 14
-145 20 -41 5 -111 12 -155 15 -44 2 -100 9 -125 14 -52 11 -541 9 -571 -2z
m251 -672 c53 -19 83 -70 77 -127 -5 -40 -47 -227 -78 -344 -17 -65 -28 -108
-34 -140 -3 -16 -11 -48 -16 -70 -6 -22 -13 -57 -16 -78 -3 -20 -9 -40 -14
-43 -5 -3 -9 -17 -9 -31 0 -15 -4 -40 -10 -57 -5 -17 -21 -76 -36 -131 -30
-113 -100 -331 -114 -357 -6 -10 -10 -22 -10 -28 0 -5 -11 -33 -24 -62 -13
-29 -36 -81 -50 -116 -23 -55 -61 -127 -134 -255 -84 -146 -268 -355 -377
-427 -118 -78 -238 -134 -315 -146 -14 -2 -47 -7 -74 -12 -34 -7 -66 -5 -102
3 -30 7 -56 10 -58 7 -8 -7 -127 37 -158 59 -14 11 -29 19 -33 19 -22 0 -135
134 -135 161 0 5 -4 17 -9 27 -30 57 -50 215 -46 362 4 138 16 224 54 400 24
111 79 278 121 368 17 35 30 65 30 67 0 11 111 193 165 270 62 88 239 274 320
334 162 123 357 238 490 290 11 5 31 13 45 19 29 11 86 27 150 40 68 15 358
13 400 -2z"/>
<path d="M22297 15899 c-16 -4 -56 -9 -90 -10 -34 -1 -73 -6 -87 -10 -14 -4
-45 -10 -70 -13 -25 -3 -65 -10 -90 -15 -42 -9 -66 -15 -172 -42 -24 -5 -55
-13 -71 -16 -15 -3 -30 -9 -33 -14 -3 -5 -14 -9 -25 -9 -10 0 -27 -4 -37 -9
-9 -5 -44 -19 -77 -31 -33 -12 -68 -26 -77 -31 -10 -5 -22 -9 -27 -9 -5 0 -43
-16 -85 -35 -42 -20 -78 -36 -81 -36 -11 0 -205 -107 -226 -125 -8 -8 -19 -14
-23 -14 -8 0 -175 -111 -221 -146 -16 -13 -50 -38 -73 -56 -56 -42 -181 -156
-255 -233 -276 -286 -499 -654 -603 -997 -47 -159 -76 -293 -104 -485 -13 -91
-13 -459 0 -515 5 -24 14 -70 21 -103 17 -88 45 -168 95 -270 129 -263 343
-431 649 -513 166 -44 468 -40 640 8 22 7 52 14 68 17 15 3 30 9 33 14 3 5 14
9 25 9 10 0 27 4 37 9 34 18 129 61 135 61 3 0 26 14 50 30 25 17 47 30 51 30
3 0 49 33 103 74 104 78 267 232 349 330 27 33 59 69 72 81 12 12 22 27 22 34
0 17 47 13 54 -5 3 -9 2 -44 -4 -77 -5 -34 -12 -82 -15 -107 -2 -25 -9 -83
-15 -130 -32 -259 -31 -298 10 -320 12 -6 190 -10 457 -10 l439 0 31 33 c40
42 43 59 53 267 16 309 37 459 111 795 5 22 12 56 15 75 3 19 9 44 14 55 5 11
11 36 14 55 3 19 9 55 15 80 6 25 14 68 20 95 10 53 84 399 102 475 13 54 26
114 34 155 3 17 10 49 16 73 16 74 29 136 34 162 2 14 28 129 56 255 28 127
55 248 60 270 4 22 13 60 19 85 6 25 15 68 20 95 5 28 19 91 30 140 12 50 28
117 36 151 27 117 16 191 -36 231 -29 24 -85 47 -130 54 -25 5 -67 13 -95 19
-133 29 -247 45 -390 56 -38 3 -85 9 -103 14 -41 11 -636 10 -675 -1z m274
-676 c20 -8 42 -25 49 -38 13 -24 9 -97 -9 -177 -18 -77 -29 -128 -45 -208 -9
-41 -20 -93 -25 -115 -5 -22 -14 -62 -21 -90 -6 -27 -15 -67 -20 -87 -6 -21
-15 -57 -21 -80 -6 -24 -13 -58 -16 -76 -3 -18 -9 -35 -14 -38 -5 -3 -9 -15
-9 -26 0 -20 -12 -65 -30 -113 -5 -11 -16 -47 -25 -80 -30 -103 -57 -184 -91
-262 -8 -18 -21 -50 -30 -70 -70 -164 -190 -385 -259 -478 -189 -254 -398
-416 -604 -469 -69 -18 -177 -21 -213 -7 -13 5 -43 15 -68 22 -154 44 -264
154 -296 294 -39 177 -13 652 46 810 4 11 13 38 19 60 39 129 192 448 240 503
9 10 32 40 51 67 37 55 220 265 230 265 3 0 36 26 72 58 79 68 104 88 141 110
15 9 27 20 27 24 0 4 5 8 11 8 6 0 44 20 85 45 40 25 76 45 79 45 4 0 36 14
73 31 84 39 98 44 147 57 79 21 102 25 215 32 149 9 266 3 311 -17z"/>
<path d="M17650 11225 c-8 -3 -71 -9 -140 -15 -151 -13 -235 -24 -315 -40 -33
-7 -71 -13 -85 -14 -14 -1 -38 -6 -55 -13 -16 -6 -66 -19 -110 -28 -44 -9 -89
-20 -100 -25 -11 -5 -49 -18 -85 -30 -36 -11 -73 -25 -82 -30 -10 -6 -27 -10
-37 -10 -11 0 -23 -4 -26 -10 -3 -5 -13 -10 -21 -10 -37 0 -326 -144 -421
-209 -333 -229 -545 -548 -617 -926 -15 -80 -13 -364 2 -445 7 -36 16 -80 19
-98 3 -18 9 -35 14 -38 5 -3 9 -16 9 -29 0 -13 5 -27 10 -30 6 -3 10 -13 10
-21 0 -40 79 -174 167 -285 68 -84 240 -229 339 -284 27 -15 60 -35 74 -44 14
-9 39 -23 55 -31 17 -8 32 -17 35 -20 6 -7 354 -179 445 -220 118 -53 200 -95
203 -102 2 -5 12 -8 23 -8 10 0 19 -3 19 -8 0 -4 15 -13 33 -21 17 -8 50 -26
72 -40 22 -14 45 -28 50 -31 6 -3 44 -27 84 -54 176 -119 281 -306 281 -499 0
-242 -158 -460 -435 -602 -122 -62 -187 -86 -342 -124 -213 -53 -718 -48 -943
9 -44 11 -107 25 -163 37 -15 3 -30 9 -33 14 -3 5 -16 9 -29 9 -13 0 -27 5
-30 10 -4 6 -12 10 -18 8 -7 -1 -29 6 -51 15 -21 9 -42 17 -47 17 -5 0 -17 4
-27 9 -9 5 -29 14 -44 20 -16 6 -38 15 -50 20 -105 43 -156 13 -188 -114 -25
-102 -85 -286 -120 -370 -54 -130 -64 -214 -30 -257 29 -37 104 -70 193 -83
15 -3 55 -12 90 -20 34 -9 73 -17 87 -19 14 -2 81 -13 150 -26 145 -25 230
-36 393 -50 65 -5 122 -12 127 -15 13 -8 679 -7 692 1 6 4 48 11 92 16 138 16
216 28 349 58 26 5 66 14 90 19 43 9 136 37 172 51 11 5 31 12 45 15 24 7 48
16 159 66 30 13 57 24 60 25 17 2 91 40 91 46 0 5 9 8 20 8 11 0 20 5 20 10 0
6 5 10 11 10 6 0 30 13 54 30 24 17 47 30 51 30 4 0 16 7 26 17 10 9 26 21 37
27 92 55 239 182 323 281 181 213 288 433 347 710 25 120 22 374 -7 515 -33
160 -125 354 -238 501 -83 108 -272 264 -414 343 -19 11 -37 22 -40 26 -8 10
-374 187 -458 222 -42 17 -85 39 -96 47 -10 9 -21 15 -25 14 -3 -1 -19 5 -36
12 -159 72 -217 101 -260 129 -27 17 -62 38 -77 45 -57 29 -200 160 -239 219
-21 34 -39 67 -39 75 0 7 -4 17 -9 23 -9 10 -31 118 -29 149 1 44 30 147 51
188 101 190 282 330 532 412 133 43 140 45 171 45 17 0 34 4 40 9 17 17 116
23 369 24 251 2 361 -5 396 -23 10 -6 22 -9 26 -8 14 4 107 -12 138 -24 41
-15 117 -48 135 -58 32 -19 103 -50 116 -50 7 0 15 -4 19 -10 3 -5 37 -8 74
-7 61 2 74 6 108 33 56 45 97 137 142 314 22 85 47 178 57 205 24 70 24 147 0
174 -27 30 -101 61 -176 76 -34 7 -54 12 -150 35 -25 6 -67 16 -95 21 -27 5
-72 14 -100 20 -68 13 -175 30 -200 31 -11 0 -47 5 -80 11 -33 5 -82 11 -110
12 -385 12 -462 14 -475 10z"/>
<path d="M35810 10039 c-126 -8 -233 -22 -295 -38 -22 -5 -53 -13 -70 -16 -39
-9 -164 -45 -190 -55 -11 -5 -44 -16 -74 -25 -54 -16 -127 -46 -166 -68 -11
-6 -63 -33 -115 -60 -161 -83 -206 -112 -388 -251 -91 -70 -305 -283 -364
-364 -23 -31 -47 -62 -52 -69 -67 -75 -180 -274 -271 -478 -60 -132 -136 -385
-176 -585 -59 -289 -58 -685 1 -920 6 -25 14 -57 17 -73 3 -15 9 -30 14 -33 5
-3 9 -13 9 -23 0 -10 6 -31 14 -47 8 -16 23 -49 34 -74 30 -66 112 -187 170
-250 28 -30 51 -58 52 -62 0 -4 37 -37 83 -73 45 -36 90 -72 99 -80 10 -8 34
-23 55 -35 21 -11 61 -33 88 -50 48 -29 95 -52 143 -71 12 -5 33 -13 47 -19
14 -5 35 -14 48 -19 12 -5 35 -14 50 -20 15 -6 39 -11 52 -11 13 0 27 -4 30
-10 3 -5 21 -10 40 -10 19 0 37 -5 40 -11 4 -6 13 -8 21 -5 7 3 33 -1 56 -10
23 -8 48 -12 56 -9 7 2 44 0 81 -5 176 -25 522 -8 735 35 38 8 71 13 74 11 2
-3 18 2 37 9 18 8 35 12 38 9 3 -3 14 -1 25 5 10 5 30 12 43 15 26 4 171 51
204 65 11 5 38 17 60 26 75 32 230 109 270 134 60 38 78 49 100 61 11 5 40 26
65 45 25 19 61 46 80 59 54 36 300 282 366 366 155 196 299 453 373 665 12 33
26 69 31 80 5 11 14 38 20 60 24 84 29 102 43 155 8 30 20 82 26 115 7 33 19
89 27 125 8 36 14 75 14 87 0 12 5 25 10 28 7 4 8 38 5 93 -4 48 -10 213 -14
367 -8 329 -17 373 -114 575 -80 168 -212 320 -370 428 -99 68 -302 171 -392
199 -38 12 -92 29 -120 38 -27 9 -61 18 -75 20 -14 2 -50 8 -80 14 -30 6 -84
15 -120 20 -36 5 -78 12 -95 15 -55 9 -288 13 -405 5z m175 -711 c28 -6 60
-14 73 -19 47 -19 78 -32 94 -40 10 -5 23 -9 28 -9 19 0 128 -79 171 -123 51
-53 106 -134 120 -178 6 -19 14 -43 19 -54 14 -34 29 -125 40 -240 13 -139
-11 -422 -50 -590 -7 -27 -13 -57 -15 -65 -7 -43 -44 -165 -66 -217 -11 -29
-26 -66 -38 -95 -9 -24 -54 -116 -101 -208 -16 -30 -40 -70 -54 -89 -15 -19
-26 -41 -26 -48 0 -7 -4 -13 -10 -13 -5 0 -10 -4 -10 -10 0 -5 -15 -29 -32
-53 -18 -24 -42 -56 -53 -71 -55 -78 -206 -232 -237 -242 -10 -3 -18 -9 -18
-13 0 -4 -21 -19 -47 -32 -27 -13 -49 -27 -51 -31 -2 -5 -12 -8 -23 -8 -10 0
-19 -4 -19 -10 0 -5 -8 -10 -18 -10 -10 0 -22 -4 -27 -8 -6 -5 -30 -14 -55
-21 -25 -8 -57 -18 -71 -23 -37 -13 -298 -15 -334 -2 -16 6 -48 17 -70 24 -91
29 -145 62 -211 128 -93 93 -148 208 -175 365 -24 146 -30 507 -8 564 5 14 7
29 4 33 -3 5 -1 28 4 52 5 24 15 70 22 103 6 33 19 85 27 115 8 30 17 67 19
83 3 15 9 30 14 33 5 3 9 14 9 25 0 10 4 27 9 37 5 9 23 55 42 102 43 113 146
314 168 330 4 3 11 12 14 20 7 15 16 27 103 141 86 112 262 264 354 306 29 13
122 47 165 61 41 13 258 13 320 0z"/>
<path d="M33550 10033 c-148 -25 -295 -66 -385 -109 -116 -54 -250 -137 -330
-204 -98 -82 -313 -309 -338 -356 -21 -41 -52 -45 -69 -9 -8 19 -8 29 4 47 18
28 36 113 37 180 0 26 7 80 16 120 8 40 15 97 15 126 0 44 -4 57 -26 77 -15
14 -32 25 -38 25 -6 1 -185 1 -398 0 -427 -1 -443 -3 -473 -61 -9 -16 -30
-110 -47 -207 -37 -221 -46 -266 -58 -322 -5 -25 -16 -81 -24 -125 -8 -44 -19
-102 -25 -130 -6 -27 -16 -72 -21 -100 -5 -27 -14 -68 -19 -90 -5 -22 -19 -87
-31 -145 -12 -58 -26 -123 -31 -145 -5 -22 -14 -65 -20 -95 -6 -30 -14 -73
-19 -95 -8 -39 -34 -170 -50 -250 -8 -39 -23 -109 -41 -190 -5 -22 -14 -65
-20 -95 -12 -60 -24 -115 -39 -185 -5 -25 -14 -65 -20 -90 -18 -80 -28 -128
-43 -210 -9 -44 -25 -123 -37 -175 -12 -52 -26 -117 -32 -145 -5 -27 -14 -69
-19 -92 -5 -24 -13 -62 -18 -85 -5 -24 -14 -68 -21 -98 -7 -30 -16 -74 -21
-97 -5 -24 -13 -63 -19 -88 -5 -25 -14 -64 -19 -87 -44 -198 -52 -298 -26
-335 22 -32 78 -46 149 -39 34 3 221 6 416 7 l355 0 32 25 c39 30 54 56 64
109 7 39 18 99 40 213 6 31 15 77 20 102 4 25 13 66 19 93 5 26 15 68 20 95 6
26 15 67 19 92 5 25 12 56 15 70 8 37 43 201 67 315 12 55 25 118 30 140 5 22
14 63 19 90 6 28 15 68 20 90 5 22 14 63 19 90 13 66 69 290 83 335 102 317
199 504 371 711 176 211 477 362 727 362 47 0 105 -5 130 -12 71 -20 131 -20
172 1 57 28 93 109 128 293 6 33 15 76 20 95 5 19 11 55 15 80 7 47 17 80 59
194 33 91 41 149 26 186 -15 36 -66 76 -121 95 -39 14 -150 18 -209 8z"/>
<path d="M21238 9995 c-4 -4 -44 -11 -90 -16 -98 -10 -221 -33 -313 -59 -22
-6 -53 -15 -70 -20 -48 -13 -116 -36 -175 -60 -30 -12 -66 -25 -80 -29 -31
-10 -172 -80 -220 -109 -19 -12 -42 -25 -50 -29 -34 -15 -243 -155 -297 -199
-162 -131 -236 -203 -378 -369 -167 -195 -348 -500 -429 -725 -15 -41 -31 -83
-37 -92 -5 -10 -9 -27 -9 -37 0 -11 -4 -22 -9 -25 -5 -3 -11 -18 -14 -33 -3
-16 -11 -46 -17 -68 -32 -111 -65 -266 -81 -380 -6 -38 -12 -180 -14 -315 -3
-191 -1 -260 11 -315 8 -38 22 -101 30 -140 43 -198 143 -374 292 -515 49 -47
109 -99 133 -116 98 -71 375 -194 437 -194 11 0 23 -4 26 -9 5 -8 20 -12 114
-27 20 -4 42 -10 47 -14 6 -4 29 -8 53 -8 24 -1 58 -6 77 -12 19 -6 38 -9 42
-7 5 3 44 1 88 -4 105 -12 477 -17 535 -7 25 5 79 10 120 13 41 3 97 9 124 15
26 5 52 7 57 4 5 -3 18 0 30 6 12 7 35 13 53 16 38 4 105 19 126 28 8 3 29 8
45 11 17 2 50 9 75 15 25 6 60 14 78 17 18 3 35 9 38 14 3 5 16 9 29 9 13 0
27 5 30 10 3 6 15 10 26 10 10 0 27 4 37 9 9 5 38 19 65 32 95 45 147 109 175
214 6 22 17 126 23 231 10 161 10 196 -2 222 -8 18 -17 32 -20 32 -3 0 -42
-18 -85 -41 -44 -22 -81 -40 -84 -40 -3 -1 -25 -10 -50 -21 -25 -11 -58 -26
-75 -33 -16 -7 -51 -22 -77 -34 -26 -11 -57 -21 -67 -21 -11 0 -22 -4 -25 -9
-3 -5 -18 -11 -33 -14 -47 -9 -85 -18 -158 -37 -131 -34 -150 -36 -364 -47
-251 -12 -448 20 -604 100 -213 109 -348 352 -347 625 1 173 41 279 120 318
41 20 65 23 260 28 222 7 407 19 520 35 97 13 260 44 330 61 54 13 119 28 180
40 50 10 105 23 165 40 22 6 54 15 70 19 191 53 403 148 545 244 119 81 276
226 333 307 77 109 129 220 162 346 47 176 13 474 -68 597 -9 14 -17 29 -17
33 0 4 -19 34 -41 68 -50 74 -134 162 -212 222 -105 80 -310 168 -442 190 -11
1 -47 8 -80 15 -33 6 -89 16 -125 21 -84 12 -433 22 -442 13z m189 -616 c27
-6 56 -15 65 -20 10 -5 24 -9 33 -9 17 0 81 -35 102 -55 8 -8 19 -18 26 -22
21 -14 65 -86 81 -133 18 -53 21 -178 5 -229 -29 -92 -75 -169 -143 -239 -90
-93 -158 -140 -271 -187 -148 -62 -165 -68 -280 -96 -22 -6 -58 -15 -80 -20
-43 -11 -115 -23 -240 -39 -44 -6 -120 -16 -170 -22 -49 -7 -150 -12 -223 -12
-129 -1 -135 0 -153 23 -19 23 -19 48 1 96 20 51 78 166 112 224 21 34 38 65
38 68 0 11 105 162 149 214 6 8 34 42 63 77 44 53 131 131 247 220 39 30 124
74 186 96 28 10 59 21 70 26 23 10 73 25 130 38 57 14 196 14 252 1z"/>
<path d="M25388 9985 c-4 -4 -51 -11 -105 -16 -116 -11 -229 -30 -353 -60 -25
-6 -62 -13 -83 -16 -20 -3 -40 -9 -43 -14 -3 -5 -15 -9 -26 -9 -20 0 -68 -13
-113 -31 -19 -7 -69 -19 -80 -19 -3 0 -30 -11 -60 -25 -30 -13 -55 -22 -55
-20 0 2 -21 -5 -47 -16 -27 -11 -57 -24 -68 -28 -51 -21 -343 -169 -379 -192
-23 -15 -73 -47 -112 -72 -78 -50 -169 -120 -253 -194 -30 -27 -67 -58 -83
-69 -54 -41 -229 -235 -349 -389 -54 -70 -129 -180 -129 -190 0 -3 -12 -24
-27 -48 -42 -64 -97 -169 -128 -242 -9 -22 -26 -60 -37 -85 -34 -75 -54 -130
-84 -230 -45 -154 -55 -198 -84 -365 -28 -161 -28 -544 0 -670 6 -27 14 -65
17 -83 3 -18 9 -35 14 -38 5 -3 9 -14 9 -25 0 -18 27 -86 52 -133 113 -212
242 -339 439 -437 59 -29 105 -50 124 -55 230 -59 306 -69 495 -69 173 1 405
38 536 85 33 12 64 23 69 24 6 1 36 15 67 30 32 14 60 26 63 26 8 0 99 52 116
66 8 8 20 14 26 14 5 0 18 9 28 20 10 11 22 20 27 20 15 0 172 127 252 204 21
20 43 35 50 33 15 -5 16 -55 4 -147 -29 -224 -154 -594 -266 -785 -119 -205
-314 -386 -514 -478 -39 -18 -173 -70 -173 -67 0 4 -63 -13 -103 -27 -23 -9
-45 -13 -49 -10 -3 4 -14 2 -25 -4 -10 -6 -38 -11 -61 -11 -23 0 -53 -5 -67
-10 -36 -14 -477 -12 -533 3 -26 6 -53 9 -60 6 -8 -3 -36 -1 -63 5 -27 5 -60
11 -74 13 -14 1 -45 8 -70 13 -25 6 -58 14 -74 18 -23 6 -115 50 -233 112 -49
26 -60 29 -118 31 -58 2 -62 1 -98 -36 -42 -41 -73 -101 -95 -183 -10 -35 -14
-53 -52 -250 -12 -58 -25 -113 -30 -122 -28 -50 10 -114 82 -140 51 -19 153
-44 258 -65 41 -8 95 -19 120 -24 88 -18 251 -44 380 -60 107 -14 821 -22 853
-10 13 5 57 12 98 15 41 2 81 7 89 10 8 3 31 8 50 10 137 18 317 61 465 110
84 28 89 30 170 66 28 13 65 29 83 37 40 17 152 82 218 128 265 183 472 438
624 770 23 50 46 99 51 110 5 11 22 57 38 103 16 46 32 86 35 89 3 4 6 15 6
25 0 10 4 26 9 36 5 9 15 37 21 62 7 25 16 56 20 70 4 14 12 43 18 65 6 22 16
60 23 85 6 25 15 59 20 75 4 17 12 48 18 70 6 22 25 96 42 165 46 186 48 197
59 240 6 22 14 57 20 78 5 20 14 60 20 87 14 58 27 115 39 165 5 19 14 58 20
85 5 28 17 82 26 120 8 39 25 113 36 165 12 52 26 113 31 135 5 22 13 59 19
83 5 23 13 61 19 85 5 23 14 67 20 97 7 30 16 73 20 95 5 22 15 74 24 115 8
41 24 120 37 175 12 55 25 118 29 140 4 22 18 85 30 140 12 55 35 161 50 235
50 236 77 361 110 505 18 77 36 160 40 185 5 25 18 85 30 134 31 124 31 178
-1 212 -30 32 -72 55 -124 66 -89 20 -132 28 -165 33 -19 2 -46 9 -60 14 -14
5 -52 12 -85 15 -86 9 -127 13 -240 26 -112 13 -716 25 -727 15z m154 -674
c29 -1 46 -10 79 -40 l41 -40 -5 -103 c-3 -57 -9 -121 -15 -143 -11 -43 -27
-114 -42 -180 -5 -22 -14 -60 -20 -85 -7 -25 -14 -62 -17 -83 -3 -20 -9 -40
-14 -43 -5 -3 -9 -17 -9 -31 0 -15 -4 -40 -10 -57 -13 -42 -51 -203 -57 -244
-3 -18 -9 -35 -14 -38 -5 -3 -9 -16 -9 -30 0 -13 -4 -32 -9 -42 -5 -9 -14 -37
-21 -62 -7 -25 -16 -53 -21 -62 -5 -10 -9 -25 -9 -33 0 -8 -4 -23 -10 -33 -5
-9 -21 -51 -34 -92 -81 -247 -251 -558 -400 -732 -152 -178 -320 -294 -517
-357 -92 -29 -283 -31 -335 -3 -20 11 -52 23 -70 27 -34 8 -110 64 -157 115
-53 59 -74 103 -97 210 -12 54 -9 357 4 480 9 91 48 279 66 325 4 11 13 40 20
65 13 46 19 65 39 113 6 15 15 37 19 50 24 65 131 268 183 348 221 336 517
581 849 701 30 10 64 23 75 28 21 9 67 20 101 24 12 1 34 7 50 13 36 13 181
36 191 30 5 -3 26 -2 48 2 22 4 51 6 65 5 14 -1 42 -2 62 -3z"/>
<path d="M27563 9938 c-28 -8 -54 -28 -85 -63 -13 -17 -32 -90 -61 -245 -3
-14 -15 -72 -27 -130 -12 -58 -26 -123 -30 -145 -4 -22 -20 -98 -35 -170 -15
-71 -31 -150 -36 -175 -5 -25 -13 -65 -19 -90 -6 -25 -15 -70 -20 -100 -6 -30
-14 -75 -19 -100 -5 -25 -14 -72 -21 -105 -7 -33 -16 -78 -20 -100 -5 -22 -14
-62 -20 -90 -5 -27 -14 -68 -19 -90 -5 -22 -14 -67 -21 -100 -6 -33 -20 -91
-29 -130 -10 -38 -24 -97 -30 -130 -7 -33 -16 -76 -21 -95 -11 -44 -16 -65
-50 -245 -43 -222 -52 -321 -53 -585 -2 -236 -1 -249 24 -340 70 -251 200
-414 420 -524 55 -28 112 -49 121 -45 2 0 17 -5 33 -11 17 -7 45 -14 64 -16
18 -3 42 -9 52 -15 11 -5 23 -8 27 -5 4 2 30 0 57 -6 65 -13 350 -12 410 2 25
6 50 8 55 5 5 -3 18 -1 28 4 11 6 35 12 53 14 19 2 44 9 56 15 12 7 26 11 30
10 12 -3 124 33 148 48 11 7 40 20 65 30 25 10 64 30 87 46 23 15 44 28 47 28
8 0 113 69 161 105 57 43 264 252 305 307 55 75 65 63 65 -72 -1 -112 -6 -160
-25 -244 -12 -53 -13 -138 0 -170 16 -43 64 -60 150 -55 99 5 416 4 510 -2 82
-6 131 2 194 31 54 24 75 50 101 125 6 17 26 207 26 255 1 30 20 137 42 231 8
35 20 91 27 124 6 33 15 76 20 95 5 19 14 62 20 95 6 33 15 74 21 91 5 17 9
41 9 54 0 13 4 37 9 54 6 17 15 56 20 86 89 460 101 517 111 560 15 62 38 182
45 230 1 8 21 105 44 215 23 110 47 225 53 255 19 106 69 351 128 630 80 384
110 536 110 568 0 25 -8 41 -29 61 l-29 27 -414 -1 c-403 -2 -416 -2 -459 -23
-53 -26 -81 -60 -104 -128 -15 -44 -34 -136 -36 -174 0 -8 -6 -31 -12 -50 -5
-19 -11 -46 -13 -60 -1 -14 -12 -68 -24 -120 -11 -52 -25 -117 -30 -145 -6
-27 -14 -70 -20 -95 -6 -25 -15 -67 -20 -95 -17 -78 -31 -146 -40 -190 -5 -22
-14 -67 -20 -100 -14 -78 -51 -253 -72 -340 -5 -22 -13 -59 -19 -82 -5 -24
-13 -63 -19 -88 -5 -25 -15 -66 -21 -92 -6 -27 -13 -65 -16 -86 -3 -20 -9 -40
-14 -43 -5 -3 -9 -20 -9 -37 0 -18 -7 -57 -16 -87 -8 -30 -16 -64 -18 -75 -17
-112 -76 -344 -107 -422 -5 -13 -13 -33 -18 -45 -4 -13 -18 -43 -31 -68 -13
-25 -30 -58 -38 -75 -47 -93 -191 -244 -317 -333 -14 -10 -145 -74 -170 -83
-64 -23 -87 -29 -152 -38 -88 -13 -151 -14 -189 -2 -16 5 -49 15 -74 22 -127
37 -244 126 -284 214 -34 74 -41 117 -40 260 1 142 8 205 53 435 19 98 22 114
37 185 8 39 27 126 41 195 14 69 29 143 34 165 9 40 23 110 39 195 5 25 30
144 55 265 101 484 104 498 115 560 8 46 59 291 95 460 22 101 20 166 -6 196
l-21 24 -423 0 c-233 0 -436 -3 -452 -7z"/>
</g>
</svg>
