<svg version="1.0" xmlns="http://www.w3.org/2000/svg"
 width="599.000000pt" height="151.000000pt" viewBox="0 0 599.000000 151.000000"
 preserveAspectRatio="xMidYMid meet">

<g transform="translate(0.000000,151.000000) scale(0.100000,-0.100000)"
fill="#242424" stroke="none">
<path d="M530 1419 c-30 -12 -445 -423 -466 -461 -8 -15 -14 -47 -14 -72 0
-35 7 -54 34 -89 34 -45 35 -45 14 -64 -56 -51 -65 -137 -19 -199 16 -21 118
-127 227 -236 290 -286 260 -287 571 24 151 150 227 234 234 256 15 46 3 96
-31 136 -17 19 -30 37 -30 41 0 4 13 22 30 41 36 42 47 93 29 139 -8 20 -100
123 -218 244 -238 246 -278 272 -361 240z m297 -286 c163 -165 213 -223 213
-242 0 -25 -35 -71 -54 -71 -6 0 -81 70 -166 156 -85 85 -168 162 -184 171
-35 18 -95 13 -132 -12 l-26 -17 28 -29 c19 -20 31 -26 38 -19 5 5 24 10 40
10 27 0 59 -29 243 -217 167 -170 213 -222 213 -243 0 -36 -424 -460 -460
-460 -18 0 -79 54 -239 214 -187 187 -214 218 -214 245 0 19 9 41 23 56 l24
25 160 -159 c89 -87 171 -164 184 -170 33 -18 93 -16 130 3 38 20 39 26 8 55
-20 19 -28 21 -45 11 -12 -6 -32 -8 -44 -5 -26 8 -412 389 -433 427 -10 19
-11 34 -5 50 5 13 103 116 218 231 177 175 214 207 238 207 25 0 61 -32 242
-217z"/>
<path d="M1695 964 c-53 -19 -83 -50 -96 -97 -21 -79 18 -145 104 -173 111
-35 147 -55 147 -79 0 -12 -7 -28 -15 -35 -24 -20 -126 -7 -179 23 l-43 24
-22 -45 c-25 -51 -26 -49 49 -85 66 -31 208 -31 267 1 85 45 105 159 38 222
-13 13 -66 37 -117 55 -97 34 -121 53 -102 83 15 23 80 27 135 7 24 -9 51 -19
59 -21 11 -4 23 9 37 37 12 24 20 46 17 51 -10 15 -138 48 -188 47 -28 0 -69
-7 -91 -15z"/>
<path d="M2305 971 c-69 -18 -132 -67 -163 -126 -8 -16 -17 -65 -20 -107 -4
-69 -2 -84 23 -133 14 -30 42 -67 60 -81 94 -72 266 -70 353 3 l33 28 -35 34
-36 35 -37 -21 c-70 -40 -143 -35 -189 11 -62 62 -56 65 144 68 l177 3 -1 55
c-2 104 -40 172 -117 212 -45 22 -142 32 -192 19z m151 -122 c13 -13 26 -39
30 -57 l7 -33 -119 3 c-113 3 -119 4 -116 23 4 28 34 68 63 83 36 19 107 9
135 -19z"/>
<path d="M2892 969 c-54 -16 -117 -87 -132 -149 -41 -173 55 -321 209 -320 38
0 114 30 125 49 15 23 26 9 26 -32 0 -115 -120 -151 -280 -83 -11 4 -22 -7
-38 -36 -27 -51 -22 -59 63 -89 48 -17 77 -20 145 -17 93 5 134 20 188 71 54
52 62 98 62 369 l0 238 -70 0 c-68 0 -70 -1 -70 -25 0 -26 -14 -33 -26 -14
-12 20 -89 49 -129 48 -22 0 -55 -5 -73 -10z m176 -115 c32 -22 52 -67 52
-114 0 -81 -45 -130 -120 -130 -52 0 -83 18 -105 60 -31 59 -12 150 37 184 29
21 107 21 136 0z"/>
<path d="M4512 970 c-55 -13 -122 -41 -122 -51 0 -5 9 -27 20 -49 l20 -39 42
19 c62 28 149 27 182 -2 14 -13 26 -34 28 -48 l3 -25 -115 -5 c-96 -5 -121 -9
-152 -28 -96 -60 -80 -213 29 -258 59 -25 162 -13 204 22 22 20 39 17 39 -5 0
-17 9 -20 65 -23 l65 -3 0 175 c0 96 -5 192 -10 212 -13 44 -66 93 -117 107
-43 12 -132 13 -181 1z m176 -294 c17 -85 -143 -154 -193 -83 -40 57 -7 95 85
99 95 4 105 3 108 -16z"/>
<path d="M5255 961 c-22 -10 -49 -28 -59 -40 -27 -30 -36 -26 -36 14 l0 35
-70 0 -70 0 0 -245 0 -245 70 0 70 0 0 133 c0 106 4 139 18 167 19 40 71 70
120 70 l32 0 0 65 c0 74 -6 78 -75 46z"/>
<path d="M5607 964 c-166 -51 -221 -285 -98 -417 84 -92 280 -102 372 -19 l30
27 -35 34 c-33 32 -36 33 -59 18 -41 -26 -98 -38 -138 -27 -35 10 -99 68 -99
90 0 6 71 10 180 10 l180 0 0 53 c0 117 -57 203 -152 232 -63 18 -118 18 -181
-1z m146 -95 c28 -12 57 -58 57 -88 0 -20 -5 -21 -115 -21 -128 0 -135 5 -96
64 35 52 98 71 154 45z"/>
<path d="M3400 968 c0 -2 40 -111 88 -243 l89 -240 73 0 74 0 48 153 c27 83
53 152 57 152 5 0 33 -70 61 -155 l52 -156 71 3 72 3 82 225 c46 124 85 233
89 243 5 16 -1 18 -62 15 l-68 -3 -51 -167 c-27 -92 -54 -166 -60 -165 -5 2
-33 78 -61 168 l-50 164 -70 3 -70 3 -50 -167 c-27 -92 -54 -169 -60 -171 -6
-2 -18 20 -26 49 -9 29 -33 106 -53 171 l-36 117 -70 0 c-38 0 -69 -1 -69 -2z"/>
</g>
</svg>
