<?xml version="1.0" standalone="no"?>
<!DOCTYPE svg PUBLIC "-//W3C//DTD SVG 20010904//EN"
 "http://www.w3.org/TR/2001/REC-SVG-20010904/DTD/svg10.dtd">
<svg version="1.0" xmlns="http://www.w3.org/2000/svg"
 width="500.000000pt" height="281.000000pt" viewBox="0 0 500.000000 200.000000"
 preserveAspectRatio="xMidYMid meet">

<g transform="translate(0.000000,281.000000) scale(0.100000,-0.100000)"
fill="#242424" stroke="none">
<path d="M3084 2275 c-204 -64 -332 -267 -297 -469 24 -143 104 -251 231 -313
74 -37 79 -38 186 -38 104 0 115 2 178 32 124 59 213 176 239 317 36 194 -89
400 -283 465 -71 24 -188 27 -254 6z m192 -160 c65 -19 131 -76 160 -139 58
-124 5 -272 -121 -339 -56 -30 -164 -30 -221 0 -118 63 -171 187 -132 315 13
45 77 122 119 143 65 34 127 40 195 20z"/>
<path d="M2262 2264 c-64 -17 -95 -32 -147 -74 -237 -189 -193 -563 83 -693
62 -30 75 -32 172 -32 97 0 110 2 170 31 36 17 84 48 108 69 l42 37 0 147 c0
191 4 186 -155 186 -127 0 -155 -12 -155 -67 0 -49 30 -68 110 -68 l70 0 0
-70 c0 -70 0 -70 -37 -94 -105 -69 -253 -55 -346 32 -16 15 -41 50 -55 77 -22
41 -27 64 -27 125 0 66 4 82 31 130 91 161 295 195 436 71 90 -79 180 13 92
95 -103 98 -254 136 -392 98z"/>
<path d="M955 2240 c-14 -44 7 -50 171 -50 85 0 154 -4 154 -9 0 -4 -86 -158
-191 -340 -185 -321 -191 -333 -174 -352 17 -18 33 -19 227 -19 215 0 248 5
248 39 0 36 -23 40 -203 43 l-176 3 190 329 c117 202 189 337 187 350 -3 20
-8 21 -215 24 -206 2 -212 2 -218 -18z"/>
<path d="M1522 2248 c-23 -23 -12 -51 82 -215 l95 -163 -95 -165 c-52 -90 -94
-173 -94 -183 0 -27 24 -44 55 -40 23 3 51 45 231 358 112 194 204 363 204
375 0 44 -53 61 -82 28 -9 -10 -48 -75 -88 -146 -63 -111 -74 -125 -85 -110
-6 10 -44 75 -84 146 -65 114 -75 127 -100 127 -15 0 -32 -5 -39 -12z"/>
<path d="M3787 1569 c-34 -20 -39 -56 -16 -102 51 -98 202 -353 217 -364 38
-30 102 1 102 50 0 27 -202 384 -232 410 -23 19 -45 21 -71 6z"/>
</g>
</svg>
